HIERARCHY
ROOT hip
{
  OFFSET 0 0 0
  CHANNELS 6 Xposition Yposition Zposition Zrotation Yrotation Xrotation
  JOINT abdomen
  {
    OFFSET 0 20.6881 -0.73152
    CHANNELS 3 Zrotation Xrotation Yrotation
    JOINT chest
    {
      OFFSET 0 11.7043 -0.48768
      CHANNELS 3 Zrotation Xrotation Yrotation
      JOINT neck
      {
        OFFSET 0 22.1894 -2.19456
        CHANNELS 3 Zrotation Xrotation Yrotation
        JOINT head
        {
          OFFSET -0.24384 7.07133 1.2192
          CHANNELS 3 Zrotation Xrotation Yrotation
          JOINT leftEye
          {
            OFFSET 4.14528 8.04674 8.04672
            CHANNELS 3 Zrotation Xrotation Yrotation
            End Site
            {
              OFFSET 1 0 0
            }
          }
          JOINT rightEye
          {
            OFFSET -3.6576 8.04674 8.04672
            CHANNELS 3 Zrotation Xrotation Yrotation
            End Site
            {
              OFFSET 1 0 0
            }
          }
        }
      }
      JOINT rCollar
      {
        OFFSET -2.68224 19.2634 -4.8768
        CHANNELS 3 Zrotation Xrotation Yrotation
        JOINT rShldr
        {
          OFFSET -8.77824 -1.95073 1.46304
          CHANNELS 3 Zrotation Xrotation Yrotation
          JOINT rForeArm
          {
            OFFSET -28.1742 -1.7115 0.48768
            CHANNELS 3 Zrotation Xrotation Yrotation
            JOINT rHand
            {
              OFFSET -22.5879 0.773209 7.07136
              CHANNELS 3 Zrotation Xrotation Yrotation
              JOINT rThumb1
              {
                OFFSET -1.2192 -0.487915 3.41376
                CHANNELS 3 Zrotation Xrotation Yrotation
                JOINT rThumb2
                {
                  OFFSET -3.37035 -0.52449 3.41376
                  CHANNELS 3 Zrotation Xrotation Yrotation
                  End Site
                  {
                    OFFSET -1.78271 -1.18214 1.43049
                  }
                }
              }
              JOINT rIndex1
              {
                OFFSET -7.75947 0.938293 5.60832
                CHANNELS 3 Zrotation Xrotation Yrotation
                JOINT rIndex2
                {
                  OFFSET -2.54057 -0.884171 1.56538
                  CHANNELS 3 Zrotation Xrotation Yrotation
                  End Site
                  {
                    OFFSET -1.62519 -0.234802 1.16502
                  }
                }
              }
              JOINT rMid1
              {
                OFFSET -8.24714 1.18213 3.41376
                CHANNELS 3 Zrotation Xrotation Yrotation
                JOINT rMid2
                {
                  OFFSET -3.10165 -0.590103 1.0647
                  CHANNELS 3 Zrotation Xrotation Yrotation
                  End Site
                  {
                    OFFSET -2.48547 -0.328903 0.83742
                  }
                }
              }
              JOINT rRing1
              {
                OFFSET -8.82822 0.546677 1.51678
                CHANNELS 3 Zrotation Xrotation Yrotation
                JOINT rRing2
                {
                  OFFSET -2.60934 -0.819778 -0.0198488
                  CHANNELS 3 Zrotation Xrotation Yrotation
                  End Site
                  {
                    OFFSET -2.33842 -0.294052 0.168128
                  }
                }
              }
              JOINT rPinky1
              {
                OFFSET -8.27202 -0.0477905 -0.4584
                CHANNELS 3 Zrotation Xrotation Yrotation
                JOINT rPinky2
                {
                  OFFSET -1.82734 -0.647385 -0.700984
                  CHANNELS 3 Zrotation Xrotation Yrotation
                  End Site
                  {
                    OFFSET -1.69225 -0.51767 -0.607171
                  }
                }
              }
            }
          }
        }
      }
      JOINT lCollar
      {
        OFFSET 2.68224 19.2634 -4.8768
        CHANNELS 3 Zrotation Xrotation Yrotation
        JOINT lShldr
        {
          OFFSET 8.77824 -1.95073 1.46304
          CHANNELS 3 Zrotation Xrotation Yrotation
          JOINT lForeArm
          {
            OFFSET 28.1742 -1.7115 0.48768
            CHANNELS 3 Zrotation Xrotation Yrotation
            JOINT lHand
            {
              OFFSET 22.5879 0.773209 7.07136
              CHANNELS 3 Zrotation Xrotation Yrotation
              JOINT lThumb1
              {
                OFFSET 1.2192 -0.487915 3.41376
                CHANNELS 3 Zrotation Xrotation Yrotation
                JOINT lThumb2
                {
                  OFFSET 3.37035 -0.52449 3.41376
                  CHANNELS 3 Zrotation Xrotation Yrotation
                  End Site
                  {
                    OFFSET 1.78271 -1.18214 1.43049
                  }
                }
              }
              JOINT lIndex1
              {
                OFFSET 7.75947 0.938293 5.60832
                CHANNELS 3 Zrotation Xrotation Yrotation
                JOINT lIndex2
                {
                  OFFSET 2.54057 -0.884171 1.56538
                  CHANNELS 3 Zrotation Xrotation Yrotation
                  End Site
                  {
                    OFFSET 1.62519 -0.234802 1.16502
                  }
                }
              }
              JOINT lMid1
              {
                OFFSET 8.24714 1.18213 3.41376
                CHANNELS 3 Zrotation Xrotation Yrotation
                JOINT lMid2
                {
                  OFFSET 3.10165 -0.590103 1.0647
                  CHANNELS 3 Zrotation Xrotation Yrotation
                  End Site
                  {
                    OFFSET 2.48547 -0.328903 0.83742
                  }
                }
              }
              JOINT lRing1
              {
                OFFSET 8.82822 0.546677 1.51678
                CHANNELS 3 Zrotation Xrotation Yrotation
                JOINT lRing2
                {
                  OFFSET 2.60934 -0.819778 -0.0198488
                  CHANNELS 3 Zrotation Xrotation Yrotation
                  End Site
                  {
                    OFFSET 2.33842 -0.294052 0.168128
                  }
                }
              }
              JOINT lPinky1
              {
                OFFSET 8.27202 -0.0477905 -0.4584
                CHANNELS 3 Zrotation Xrotation Yrotation
                JOINT lPinky2
                {
                  OFFSET 1.82734 -0.647385 -0.700984
                  CHANNELS 3 Zrotation Xrotation Yrotation
                  End Site
                  {
                    OFFSET 1.69225 -0.51767 -0.607171
                  }
                }
              }
            }
          }
        }
      }
    }
  }
  JOINT rButtock
  {
    OFFSET -8.77824 4.35084 1.2192
    CHANNELS 3 Zrotation Xrotation Yrotation
    JOINT rThigh
    {
      OFFSET 0 -1.70687 -2.19456
      CHANNELS 3 Zrotation Xrotation Yrotation
      JOINT rShin
      {
        OFFSET 0 -36.8199 0.73152
        CHANNELS 3 Zrotation Xrotation Yrotation
        JOINT rFoot
        {
          OFFSET 0.73152 -45.1104 -5.12064
          CHANNELS 3 Zrotation Xrotation Yrotation
          End Site
          {
            OFFSET -1.1221 -3.69964 12.103
          }
        }
      }
    }
  }
  JOINT lButtock
  {
    OFFSET 8.77824 4.35084 1.2192
    CHANNELS 3 Zrotation Xrotation Yrotation
    JOINT lThigh
    {
      OFFSET 0 -1.70687 -2.19456
      CHANNELS 3 Zrotation Xrotation Yrotation
      JOINT lShin
      {
        OFFSET 0 -36.8199 0.73152
        CHANNELS 3 Zrotation Xrotation Yrotation
        JOINT lFoot
        {
          OFFSET -0.73152 -45.1104 -5.12064
          CHANNELS 3 Zrotation Xrotation Yrotation
          End Site
          {
            OFFSET 1.1221 -3.69964 12.103
          }
        }
      }
    }
  }
}
MOTION
Frames:	6
Frame Time:	0.03333
-5.2271 58.148599999999995 2.7551 21.57119 -63.931205 -15.369114 -18.73741 6.410693 -94.32958 4.069961 10.432368 76.828756 -25.388172 27.096392 -73.874457 50.366888 11.682797 31.97763 -48.829846 12.340826 -26.792816 16.02067 3.739512 26.120659 -9.944332 18.289489 13.248135 -108.76104 -10.224228 165.196598 126.277925 37.397132 -113.203303 -53.980972 74.068694 38.127851 86.046071 -59.545721 34.974012 -76.935921 40.829769 55.340809 -129.951347 -49.00772 166.662292 118.545396 -75.794108 9.797219 -6.195211 4.286132 -9.257997 -7.985656 11.330833 23.073122 -128.306877 24.866382 158.679383 45.745161 -24.608352 9.83217 -52.629659 -39.516601 -41.347225 -122.858234 -21.00015 -139.919844 -4.303404 8.289923 4.075369 -77.737749 -8.505735 -20.124025 164.627149 0.531453 -122.281802 -143.967118 -56.829569 -130.316697 -2.699919 -0.745635 5.192496 123.081178 -50.205239 -143.469891 131.591327 -0.819999 -113.841898 -105.765617 -53.33351 -27.560883 -8.241627 12.828913 -0.317472 134.99408 60.269343 -110.90971 150.974286 -18.080166 167.571746 61.10647 -68.649657 71.480966 46.022745 -44.742977 43.282864 -1.547533 21.370765 -9.527036 95.167597 61.483154 69.18303 -168.43517 11.056345 -9.7828 -14.886333 65.687431 10.476545 -125.035081 -41.180517 12.876916 18.570028 14.560771 21.713802 -13.87251 7.350023 163.672248 -10.199753 -41.068918 -79.856608 -159.566979 23.146337 50.167325
-5.2223 58.0634 2.9336 22.02603 -64.026141 -15.886478 -19.736164 5.120465 -137.371181 -5.814215 9.913025 120.717744 -11.676854 18.075412 22.134277 -3.569277 -38.114506 -61.954285 -50.341829 11.182217 -23.534032 16.311967 3.600301 24.737728 -177.560574 -65.535126 157.562756 -37.798268 -10.561634 -37.311066 -25.481 -50.866051 -92.457803 152.303699 -45.329986 134.091702 16.308385 -21.063063 -9.366815 -112.966295 -7.564955 104.027791 -2.612374 53.128985 -6.931017 176.68214 56.036683 108.907963 -0.091056 -38.597123 -15.416661 30.131506 -23.445571 14.954376 12.51563 -35.987098 2.205827 76.051184 80.121143 -93.982695 -132.569028 -24.700581 -115.302429 -60.078832 -42.90797 -72.953415 22.08338 64.645174 -28.69275 102.887298 8.731328 -104.090553 -22.26972 6.458456 56.911838 -171.752056 -14.069542 -149.944987 173.818322 -14.996441 -95.840517 -161.233514 -16.554112 -94.203427 78.115333 39.334893 -74.142905 -74.090726 -79.501976 -3.355953 145.138836 2.502641 -143.974535 174.480135 -67.057776 -137.644092 152.934086 14.47775 179.691175 169.346958 7.477405 -177.086141 102.690299 -42.441236 99.045954 26.919817 -50.90131 21.732684 97.593572 68.861601 73.558553 -177.20666 10.983084 148.141445 54.928166 -58.180436 -44.441264 52.801976 -79.159151 -48.389739 21.448799 16.522091 24.057687 -17.265229 8.427505 118.087541 19.7224 -26.542474 -121.483777 -96.419314 -42.065986 -13.525062
-5.1541 57.6983 2.9326000000000003 20.465049 -63.695083 -13.992044 -17.965748 5.637818 -108.365227 0.93177 10.447381 92.426241 -21.748161 22.331154 -28.71228 40.687789 -22.830399 -1.640282 -46.064506 10.465408 -24.313543 27.078119 5.402495 22.171386 -1.818882 -4.57943 5.030621 67.189839 35.141264 -5.929215 -57.969307 25.335272 34.949638 27.83852 -49.321532 17.857765 -155.091016 12.449773 96.307529 159.977372 -33.808182 106.796871 10.699738 2.536671 -30.494822 16.660404 -40.047687 43.136838 -4.755246 -2.330948 -8.898562 -115.160031 39.579143 99.307009 -116.710196 42.056285 143.134597 34.177088 39.904445 15.57034 -6.879983 20.212322 -0.348932 -146.896506 44.729911 -168.851326 -4.684406 3.875498 3.957863 106.519103 -24.524966 -161.090908 167.665624 1.716474 158.15557 9.583906 26.295936 -7.530195 3.460574 8.010725 2.776403 -18.903847 -72.09942 53.448312 2.047779 16.44648 -10.454379 -1.325162 13.27207 29.220182 17.317374 53.289348 -22.05519 4.883626 0.453235 8.323438 147.314106 -29.254629 164.189545 -21.649565 78.092002 18.92638 51.876325 -43.464828 50.520585 2.404238 15.791646 -10.958825 15.403232 -9.985058 9.510248 -57.265149 -52.591275 -76.851297 -59.295339 45.232965 101.472451 82.068762 -40.829132 -17.815943 50.250271 30.366124 34.374712 -43.22017 18.09391 106.303481 18.269031 -36.468425 -65.296539 128.386378 -44.708905 24.332142
-5.029999999999999 57.8109 2.8413999999999997 19.554489 -64.09385 -12.839806 -17.258225 5.170069 -102.212278 1.837065 10.14692 85.581353 -26.321597 25.294151 -46.732991 49.233958 -7.980527 12.585624 -46.804604 12.353698 -28.079805 33.993028 7.896114 25.446901 -160.583173 -14.921889 157.104135 138.904682 -12.694627 174.032803 -6.011229 -18.119002 34.526041 -0.597872 12.843396 0.21679 -173.822317 -11.621253 101.486953 168.35802 -75.354809 141.271671 -128.848444 -51.080912 167.298541 10.263922 63.166748 30.608902 -170.531952 -27.050059 152.93292 -6.394591 -79.868722 -39.574735 12.45025 -23.291152 7.354672 155.280248 45.94457 -153.934906 -153.070943 -12.83208 -129.652448 -136.643277 -2.889962 -123.04426 133.587211 55.795579 -143.888812 -70.512186 -41.886251 -108.182757 -10.709563 -47.525565 -31.132713 17.74483 45.223849 -12.273934 159.573873 -2.403702 -92.186444 13.959085 -40.274009 -32.639248 165.535127 -52.590031 -115.267227 -13.381631 -5.650645 -29.103111 159.283264 -50.571311 -150.749211 148.124704 8.092172 -134.135487 7.393754 26.983233 -1.420078 -4.243964 51.888312 -21.92073 -93.161173 78.518942 57.792613 148.953613 16.303158 138.363217 2.237173 -10.265214 0.181404 -42.370295 -58.102389 42.762928 72.867099 22.430606 -145.916804 -8.896813 -62.564957 91.016009 154.17331 65.678507 8.74994 -112.562644 69.890639 47.944561 44.213364 -1.320985 134.310479 66.245421 16.490296 151.46964
-4.8666 58.1477 2.7546999999999997 19.370554 -64.489012 -12.560857 -17.419562 4.903519 -99.436085 2.047044 10.681014 81.549765 -29.186231 33.914637 -101.4559 48.562129 36.3735 50.419657 -50.067219 16.626645 -34.747685 36.34056 10.689485 31.820087 -161.688655 -19.684153 156.170136 -44.442308 -34.358797 -0.275036 -174.773221 -21.084841 -142.73766 -3.268577 22.784097 -0.003899 -177.386539 -15.482163 102.641526 -48.136875 5.399705 -10.972049 8.359096 -7.352692 -32.193589 155.331152 -1.890445 77.064371 -140.915637 53.384952 123.315038 -164.104414 34.812497 134.33971 -132.806401 0.785381 168.465449 96.296224 -68.190426 60.241894 -2.785864 57.850119 11.055145 -152.885749 25.186244 -161.346709 150.279726 -11.666477 -170.456284 -139.174572 -10.146782 164.22092 -0.621595 -17.854485 -25.715734 11.792318 36.071695 -8.796395 -107.687679 -52.331813 -46.31406 -166.41949 -57.86176 -143.173782 -178.69175 -62.129575 -105.567622 163.408599 5.333707 -75.266284 15.074824 47.368469 -20.092116 8.475154 37.48545 3.743213 9.714659 -1.10443 9.331383 138.426782 -7.439274 -174.129953 159.875516 21.431384 132.136205 148.366912 3.158599 139.66257 4.686723 -10.052986 3.302764 -46.55482 -58.396985 -170.910625 -69.088769 -53.472787 29.260151 5.94086 -23.072581 97.968346 -48.535739 18.646046 -22.445701 45.611743 18.563685 83.904455 39.711368 26.329339 89.287553 171.986488 42.108241 90.034973
-4.6941 58.4292 2.7198 19.568441 -64.752052 -12.737847 -22.361275 6.173469 65.242043 1.95664 -16.068213 -83.085316 -8.041492 30.09867 105.845649 -47.081108 3.865754 -141.503094 -53.218104 21.647907 -41.779111 31.9559 11.261128 37.99946 -78.783809 59.193065 80.548295 -99.669279 17.7801 109.7443 172.770528 26.350857 -138.545413 -8.538785 38.391167 1.268769 8.878066 -19.07739 -13.18108 -130.557758 -46.719245 108.127176 2.242961 36.471823 -17.177641 -33.986498 -17.66809 -1.559709 -3.55881 -34.913023 -10.694791 -103.977197 49.607086 111.515331 -127.452847 10.831715 166.462371 30.414513 9.423126 16.742318 -136.247576 -38.596798 -113.801771 -144.308621 14.259275 -128.249934 -4.967706 -21.760126 12.728023 97.85829 -26.711797 173.529497 -8.537304 -4.775509 59.690621 -161.365528 -34.918693 -145.083027 1.492635 7.73432 -1.127022 115.823128 3.244893 -126.832855 -1.403501 10.157479 -8.677563 158.798809 -32.013281 -160.532533 -2.455428 19.939369 -6.786129 6.126529 4.29919 11.819422 30.111075 -46.282685 35.383193 -35.381408 51.861322 14.803496 8.012277 8.66139 7.921245 147.940117 53.992502 150.777234 -174.515023 85.824842 -2.79985 158.593679 8.519384 113.400804 80.436782 -5.167927 163.037974 -143.021259 78.040018 -133.176398 -74.073636 31.506146 -32.320395 67.128342 33.683575 171.011499 43.236766 -18.752088 108.169655 -41.335167 33.96264 -171.586584
